<svg width="826" height="223" viewBox="0 0 826 223" fill="none" xmlns="http://www.w3.org/2000/svg">
<path d="M190 174.658L120.927 223L101.078 174.306L173.583 123.97L102.775 124.14L102.73 147.467L0.8196 147.331L0.343914 110.345L0.3881 97.5978L0.257859 96.167L0 48.3416L69.0727 0L88.922 48.6937L20.7182 95.9947L82.4032 96.1717L81.753 73.1479L159.511 72.5888L189.744 97.7389L189.699 121.066L190 174.658Z" fill="#FF47BC"/>
<path d="M333.328 79.872V100.856H325.588V87.612H254.724V116.336H333.328V160.54H226V139.556H233.74V152.8H304.604V124.076H226V79.872H333.328Z" fill="white"/>
<path d="M353.173 79.872H460.501V124.076H381.896V152.8H452.761V139.556H460.501V160.54H353.173V79.872ZM381.896 87.612V116.336H452.761V87.612H381.896Z" fill="white"/>
<path d="M476.025 79.872H600.381V152.8H618.785V160.54H574.237V152.8H592.641V87.612H521.777V152.8H538.805V160.54H476.025V152.8H493.053V87.612H476.025V79.872Z" fill="white"/>
<path d="M751.717 152.8V160.54H709.749V152.8H722.993L702.525 124.076H670.705V152.8H687.905V160.54H624.953V152.8H641.981V48.74H624.953V41H670.705V116.336H702.353L721.445 87.612H707.513V79.872H749.481V87.612H730.733L709.233 119.948L732.625 152.8H751.717Z" fill="white"/>
<path d="M807.996 152.8H825.024V160.54H762.244V152.8H779.272V87.612H762.244V79.872H807.996V152.8ZM809.2 67.316H778.068V41H809.2V67.316Z" fill="white"/>
</svg>
